<svg width="99" height="106" fill="none" xmlns="http://www.w3.org/2000/svg"><path d="M97.22 29.363a3.644 3.644 0 0 0-.407-.206L90.608 9.592a7.195 7.195 0 0 0-4.577-4.655L72.841.54a5.344 5.344 0 0 0-1.693-.274H66.17a3.517 3.517 0 0 0-3.506 3.13c-.716 6.527-6.216 11.448-12.793 11.448-6.577 0-12.077-4.921-12.793-11.448a3.517 3.517 0 0 0-3.506-3.13h-4.978c-.576 0-1.146.092-1.693.274l-13.19 4.397A7.194 7.194 0 0 0 9.136 9.59L2.929 29.157a3.54 3.54 0 0 0-.407.207 3.498 3.498 0 0 0-1.74 3.043v3.12c0 1.281.695 2.464 1.815 3.086l14.586 8.103v48.198c0 1.328.737 2.485 1.822 3.088v4.202a3.534 3.534 0 0 0 3.53 3.53h54.672a3.534 3.534 0 0 0 3.53-3.53v-4.202a3.532 3.532 0 0 0 1.823-3.088V46.716l14.585-8.103a3.533 3.533 0 0 0 1.816-3.086v-3.12a3.5 3.5 0 0 0-1.74-3.044zm-3.875.163L82.56 35.518v-7.464c0-1.373.251-2.718.748-3.998l4.569-11.771 5.468 17.24zM33.682 3.769c.906 8.262 7.866 14.492 16.19 14.492 8.322 0 15.282-6.23 16.189-14.492.005-.048.054-.086.11-.086h3.785a20.034 20.034 0 0 1-6.015 12.73 20.05 20.05 0 0 1-14.07 5.72 20.047 20.047 0 0 1-14.117-5.766 20.028 20.028 0 0 1-5.967-12.684h3.785c.055 0 .104.038.11.086zm-7.273.537c.538 5.497 2.967 10.59 6.953 14.5a23.443 23.443 0 0 0 16.51 6.745 23.45 23.45 0 0 0 16.454-6.692 23.433 23.433 0 0 0 7.008-14.553L84.95 8.18c.255.085.496.2.724.336L80.123 22.82a14.41 14.41 0 0 0-.98 5.233v56.041H20.6V28.053c0-1.797-.33-3.558-.98-5.233L14.067 8.515c.228-.136.469-.251.724-.336L26.41 4.306zm52.734 90.608a.114.114 0 0 1-.114.114H20.713a.114.114 0 0 1-.113-.114v-7.403h58.543v7.403zm-67.278-82.63l4.57 11.772c.496 1.28.748 2.624.748 3.997v7.464L6.397 29.526l5.468-17.242zM4.257 35.626a.114.114 0 0 1-.059-.1v-3.12c0-.026 0-.065.056-.098a.116.116 0 0 1 .06-.018c.023 0 .04.01.053.017l12.816 7.12v3.38l-12.926-7.18zm72.95 66.691H22.536a.114.114 0 0 1-.114-.113v-3.759H77.32v3.759a.114.114 0 0 1-.113.113zm18.337-66.79c0 .04-.023.08-.059.1l-12.925 7.18v-3.38l12.815-7.12c.023-.013.057-.032.113.001s.056.072.056.099v3.12z" fill="#333"/><path d="M36.574 47.331a1.709 1.709 0 0 0 2.16-1.08l1.434-4.3h.705v23.92h-1.936a1.708 1.708 0 1 0 0 3.416h7.289a1.708 1.708 0 1 0 0-3.417H44.29V40.244c0-.944-.765-1.709-1.709-1.709h-3.645c-.735 0-1.388.47-1.62 1.168l-1.823 5.467a1.708 1.708 0 0 0 1.08 2.161zm20.359 21.956h.456a6.956 6.956 0 0 0 6.947-6.947V45.483a6.956 6.956 0 0 0-6.947-6.948h-.456a6.956 6.956 0 0 0-6.948 6.948V62.34a6.956 6.956 0 0 0 6.948 6.947zm-3.53-23.804a3.535 3.535 0 0 1 3.53-3.53h.456a3.535 3.535 0 0 1 3.53 3.53V62.34a3.535 3.535 0 0 1-3.53 3.53h-.456a3.535 3.535 0 0 1-3.53-3.53V45.483z" fill="#333"/></svg>