<svg width="98" height="106" fill="none" xmlns="http://www.w3.org/2000/svg"><path d="M96.524 48.327h0a1.7 1.7 0 0 1-.908 1.797c-.167.083-4.797 2.377-11.674 2.377-1.436 0-2.868-.137-4.298-.338l-.57-.08v47.06c0 .568-.282 1.098-.75 1.413h-.001c-.182.123-7.143 4.678-29.323 4.678s-29.141-4.555-29.324-4.678h0a1.703 1.703 0 0 1-.751-1.413V52.084l-.57.08c-1.43.2-2.862.337-4.298.337-6.867 0-11.494-2.287-11.673-2.376a1.7 1.7 0 0 1-.908-1.797h0c.227-1.37 1.369-8.116 3.015-15.364.823-3.624 1.77-7.367 2.79-10.624 1.025-3.27 2.11-6 3.192-7.635h0c2.662-4.018 6.677-7.112 10.603-9.39 3.922-2.277 7.723-3.723 9.92-4.46H31a1.659 1.659 0 0 1 1.718.407v.002c.241.242.615.465 1.04.671.438.212.976.427 1.584.64 1.217.427 2.743.856 4.363 1.237 3.232.761 6.901 1.35 9.296 1.35 2.395 0 6.064-.589 9.296-1.35 1.62-.381 3.146-.81 4.363-1.237a15.431 15.431 0 0 0 1.584-.64c.425-.206.799-.43 1.04-.671v-.001A1.662 1.662 0 0 1 67 .854l.003.001c2.197.737 5.998 2.183 9.92 4.46 3.926 2.278 7.941 5.372 10.603 9.39l.417-.276-.417.276c1.083 1.634 2.167 4.366 3.191 7.635 1.02 3.257 1.968 7 2.791 10.624a286.952 286.952 0 0 1 3.015 15.363zm-78.1 4.837v45.979c0 .734.365 1.42.973 1.828.29.195 7.358 4.763 29.603 4.763 22.244 0 29.312-4.568 29.602-4.763L18.425 53.164zM61.959 7.255l.93-1.204-1.463.418C56.927 7.753 51.505 8.556 49 8.556c-2.505 0-7.926-.803-12.425-2.087l-1.463-.418.93 1.204c2.867 3.71 7.32 6.696 12.958 6.696s10.091-2.986 12.958-6.696zM79.075 48.21v.425l.42.069c1.456.24 2.94.402 4.448.402 3.884 0 6.927-.81 8.634-1.403l.402-.14-.074-.419c-.724-4.124-1.97-10.547-3.427-16.532-.729-2.993-1.512-5.882-2.31-8.324-.795-2.428-1.619-4.457-2.44-5.697-2.11-3.183-5.257-5.723-8.394-7.668-3.142-1.948-6.304-3.317-8.472-4.147l-.438-.168-.195.426C64.347 11.314 57.85 17.345 49 17.345c-8.851 0-15.346-6.031-18.229-12.31l-.195-.427-.438.168c-2.168.83-5.33 2.2-8.471 4.147-3.138 1.945-6.286 4.485-8.394 7.668-.822 1.24-1.646 3.267-2.44 5.695-.798 2.44-1.581 5.329-2.31 8.32-1.456 5.984-2.702 12.405-3.426 16.532l-.074.42.403.139c1.718.595 4.78 1.41 8.63 1.41 1.508 0 2.993-.164 4.45-.403l.418-.069V37.62c0-7.436-1.627-9.696-1.74-9.837l-.017-.022-.02-.02c-.644-.65-.627-1.678.045-2.355.642-.644 1.753-.624 2.422.047.348.35 2.678 3.038 2.678 12.187v60.498l.302.13c2.55 1.097 10.135 3.592 26.405 3.592 16.246 0 23.83-2.486 26.405-3.594l.303-.13V37.62c0-9.15 2.33-11.838 2.678-12.187h0a1.674 1.674 0 0 1 2.379 0c.638.642.66 1.673.061 2.34l-.017.019-.016.021c-.207.287-1.718 2.642-1.718 9.807v10.59z" fill="#333" stroke="#333"/><path d="M38.08 56.895h-.5v2.697a1.69 1.69 0 0 1-1.683 1.698 1.69 1.69 0 0 1-1.684-1.698V46.41c0-3.362 2.718-6.092 6.052-6.092 3.333 0 6.051 2.73 6.052 6.092 0 0 0 0 0 0v13.183a1.69 1.69 0 0 1-1.684 1.698 1.69 1.69 0 0 1-1.684-1.698v-2.697H38.08zm-.5-3.894v.5h5.369v-7.092c0-1.486-1.2-2.697-2.684-2.697a2.692 2.692 0 0 0-2.684 2.697v6.592zm17.472 4.394v.5h2.684a2.692 2.692 0 0 0 2.684-2.697v-8.789c0-1.486-1.2-2.697-2.684-2.697h-2.684v13.683zM53.37 40.317h4.367c3.334 0 6.052 2.73 6.052 6.092v8.789c0 3.362-2.718 6.092-6.052 6.092H53.37a1.69 1.69 0 0 1-1.684-1.698V42.015a1.69 1.69 0 0 1 1.684-1.698z" fill="#333" stroke="#333"/></svg>