<svg width="103" height="106" fill="none" xmlns="http://www.w3.org/2000/svg"><path d="M90.79 14.813v.5h2.313c4.729.006 8.563 3.848 8.569 8.593v72.736c-.006 4.744-3.84 8.587-8.569 8.592H20.56c-4.729-.005-8.563-3.848-8.569-8.592v-2.318H9.678c-4.729-.006-8.563-3.848-8.569-8.593V12.995c.006-4.744 3.84-8.587 8.57-8.592h5.337l.143-.255A6.613 6.613 0 0 1 20.995.766v0H26c.348 0 .682.139.928.386l3.096 3.104.147.147h31.558l.147-.147 3.095-3.104c.247-.247.58-.386.929-.386h5.005a6.613 6.613 0 0 1 5.836 3.382l.143.255h5.337c4.73.005 8.564 3.848 8.57 8.593v1.817zM66.65 3.403h-.207l-.147.147L48.16 21.734l-.352.353.352.353 6.504 6.521.354.355.354-.355 18.441-18.49.004-.004a4.044 4.044 0 0 0 .897-4.509 4.026 4.026 0 0 0-3.819-2.555H66.65zm-8.402 4.49l.851-.853H32.8l.851.853 11.945 11.976.354.355.354-.355L58.248 7.893zM25.603 3.55l-.146-.147h-4.453a4.026 4.026 0 0 0-3.809 2.554 4.044 4.044 0 0 0 .887 4.51L36.528 28.96l.354.355.354-.355 6.503-6.52.353-.354-.353-.353L25.603 3.55zm-11.36 3.993l.004-.503h-4.57c-3.282 0-5.94 2.667-5.94 5.955v72.737c0 3.287 2.658 5.955 5.94 5.955h72.545c3.282 0 5.94-2.668 5.94-5.955V12.995c0-3.288-2.658-5.955-5.94-5.955h-4.569l.003.503a6.67 6.67 0 0 1-1.977 4.784l-.003.002-19.73 19.783a1.31 1.31 0 0 1-1.856 0l-5.973-5.988-.854-.857v7.23h-2.627v-7.229l-.854.857-5.972 5.988a1.31 1.31 0 0 1-1.857 0L16.223 12.33h0l-.002-.002a6.67 6.67 0 0 1-1.977-4.784zm.875 86.78h-.5v2.321c0 3.287 2.659 5.955 5.941 5.955h72.545c3.282 0 5.94-2.668 5.94-5.956V23.906c0-3.288-2.658-5.956-5.94-5.956H90.79v67.781c-.005 4.745-3.84 8.587-8.569 8.593H15.119z" fill="#333" stroke="#333"/><path d="M44.636 39.77v-2.636h2.627v2.637h-2.627zm23.577 10.912v-2.637h2.627v2.637h-2.627zM44.636 63.41v-2.637h2.627v2.637h-2.627zm0-7.274V44.407h2.627v11.73h-2.627zm0 30.914v-2.637h2.627v2.637h-2.627zm0-7.273v-11.73h2.627v11.73h-2.627z" fill="#333" stroke="#333"/><path d="M75.268 52.49l.2-.15v-8.932H63.586v8.933l.2.15 5.44 4.091.301.226.3-.226 5.441-4.091zM62.273 40.773H76.78c.725 0 1.314.588 1.314 1.318V53c0 .416-.195.807-.526 1.056 0 0 0 0 0 0l-7.254 5.455a1.31 1.31 0 0 1-1.576 0l-7.254-5.455s0 0 0 0A1.32 1.32 0 0 1 60.959 53V42.09c0-.73.59-1.319 1.314-1.319z" fill="#333" stroke="#333"/></svg>