<svg width="113" height="92" fill="none" xmlns="http://www.w3.org/2000/svg"><path d="M110.811 25.033a1.94 1.94 0 0 0 1.439-1.869V2.233a1.943 1.943 0 0 0-1.951-1.936H71.8a1.96 1.96 0 0 0-1.463.654m40.474 24.082l-.13-.483a1.44 1.44 0 0 0 1.069-1.386V2.233v0c0-.79-.646-1.436-1.451-1.436H71.8a1.46 1.46 0 0 0-1.09.487m40.101 23.749l-17.744 4.801 17.744-4.801zm-40.1-23.75s0 0 0 0l-.374-.332m.373.333L70.337.95m.373.333c-.275.31-.402.72-.35 1.127M70.337.95a1.927 1.927 0 0 0-.474 1.523m0 0l.496-.063m-.496.063c.08.637.118 1.166.118 1.663 0 7.326-6.009 13.287-13.394 13.287-7.386 0-13.395-5.96-13.395-13.287 0-.496.038-1.025.118-1.663L2.874.797m66.99 1.677l.495-.062s0 0 0 0m0 0c.083.651.122 1.202.122 1.725 0 7.606-6.236 13.787-13.894 13.787s-13.895-6.18-13.895-13.787c0-.523.04-1.073.122-1.725h0a1.43 1.43 0 0 0-.351-1.127 1.46 1.46 0 0 0-1.09-.488h-38.5 0m0 0a1.445 1.445 0 0 0-1.452 1.437v20.932a1.44 1.44 0 0 0 1.07 1.386M2.874.797l-.382 23.755m0 0l17.743 4.801.37.1v60.314c0 .79.646 1.436 1.451 1.436h69.06c.805 0 1.451-.647 1.451-1.436V29.451l.37-.1 17.744-4.8-108.19.001zm105.921-2.366h.434V3.67H73.385v.499c-.018 9.167-7.543 16.627-16.799 16.627-9.255 0-16.781-7.46-16.798-16.627v-.5H4.325v18.4l.369.1 17.744 4.8a1.44 1.44 0 0 1 1.07 1.387V88.33h66.155V28.356a1.44 1.44 0 0 1 1.07-1.386s0 0 0 0l17.679-4.784z" fill="#333" stroke="#333"/><path d="M44.294 27.979h0c.205.254.317.57.317.895v20.932a1.445 1.445 0 0 1-1.452 1.435H27.812c-.806 0-1.45-.646-1.45-1.435V28.874c0-.325.11-.64.316-.895h0l7.674-9.515h0c.26-.322.682-.502 1.134-.502.451 0 .874.18 1.135.502 0 0 0 0 0 0l7.673 9.515zm-3.086 20.392h.5V29.377l-.11-.137-5.723-7.096-.39-.482-.389.482-5.722 7.096-.11.137v18.994h11.944z" fill="#333" stroke="#333"/><path d="M34.066 2.233c0-.77.632-1.403 1.418-1.403.787 0 1.419.632 1.419 1.403v19.028c0 .77-.632 1.403-1.419 1.403a1.411 1.411 0 0 1-1.418-1.403V2.233zm58.468 17.128v15.223c0 .77-.632 1.403-1.419 1.403a1.411 1.411 0 0 1-1.418-1.403V19.36c0-.77.632-1.403 1.418-1.403a1.41 1.41 0 0 1 1.419 1.403zm-69.06 0v20.932c0 .77-.632 1.402-1.418 1.402a1.411 1.411 0 0 1-1.418-1.402V19.36c0-.77.631-1.403 1.418-1.403a1.41 1.41 0 0 1 1.418 1.403zM64.26 31.243h17.264c.806 0 1.452.647 1.452 1.436 0 .79-.646 1.436-1.452 1.436H64.26a1.444 1.444 0 0 1-1.451-1.436c0-.789.646-1.436 1.451-1.436z" fill="#333" stroke="#333"/></svg>