<svg xmlns="http://www.w3.org/2000/svg" viewBox="0 0 89.9 24"><path fill="#333" d="M0 0h89.9v24H0z"/><path d="M16.3 14.8c0-2.5-1.1-3.9-4.6-3.9h-2V9h5.5V6.3H6.5V19h5.2c2.8 0 4.6-1.6 4.6-4.2zm-6.6 1.4v-2.9h1.9c1 0 1.5.5 1.5 1.4 0 .9-.4 1.5-1.5 1.5H9.7zM25 19h3.2V6.3h-3l-3.3 5.4L21 14h-.1l.3-1.9V6.3H18V19h3l3.1-5 1.2-2.5h.1l-.3 2.4V19zm12.6-6.8c.9-.5 1.4-1.6 1.4-2.4 0-2.3-1.6-3.7-4.4-3.7-1.9 0-3.2.7-4.2 1.9L32 9.7c.4-.3 1.4-.9 2.3-.9 1.1 0 1.6.5 1.6 1.2 0 .8-.6 1.3-1.5 1.3h-1.8v2.2h1.9c1 0 1.7.5 1.7 1.5s-.8 1.4-2.1 1.4c-.8 0-1.7-.5-2.4-1.3l-2.1 1.6c1 1.6 2.7 2.5 4.7 2.5 3.2 0 5.1-1.5 5.1-4 0-1.1-.5-2.3-1.8-3zm6.9 2h3.7V19h3.2V6.3h-3.2v4.8h-3.7V6.3h-3.2V19h3.2v-4.8zM57 9.3h5.6v-3h-8.9V19h8.9v-3H57v-1.9h5.2v-2.8H57v-2zM71.1 15c-.7 1.8-3.6 1.3-3.6-.2v-4.4c0-1.6 2.8-1.9 3.7-.4l2.7-1c-1-2.3-2.9-2.9-4.5-2.9-2.6 0-5.1 1.5-5.1 4.4v4.4c0 2.9 2.5 4.4 5 4.4 1.6 0 3.5-.8 4.6-2.9L71.1 15zm7.5-6l-1.3-2.8h-3.7l4.2 8.6L76 19h3.5l5.8-12.7h-3.6l-1.2 2.6-1 2.5h-.1L78.6 9z" fill="#fff"/></svg>