<svg xmlns="http://www.w3.org/2000/svg" viewBox="0 0 373 52"><path d="M3.6 49.9l11.9-28 2.3-2.5-3.1.5H1.3v-6.3h23.5v2L10.2 49.9H3.6zm52.8-10.2h-5.7v10.1h-6.3V39.7H28.6v-3.8l16.5-22.7h5.6v21.1h5.7v5.4zm-12-13.3l.5-4.4h-.2l-1.8 3.7-5.4 7-2.6 2 3.3-.4h6.2v-7.9zM60.3 41c0-1.2.2-2.3.5-3.3s.8-1.8 1.3-2.6c.6-.8 1.2-1.5 2-2.1.8-.6 1.6-1.2 2.5-1.7-1.7-1.1-3-2.3-4-3.7-1-1.4-1.5-3.1-1.5-5.2 0-1.4.3-2.6.8-3.8.5-1.2 1.2-2.2 2.2-3.1 1-.9 2.1-1.5 3.5-2s2.9-.7 4.6-.7c1.6 0 3 .2 4.3.6 1.3.4 2.4 1 3.3 1.8.9.8 1.6 1.7 2.1 2.8.5 1.1.8 2.3.8 3.6 0 2-.5 3.8-1.4 5.2-.9 1.4-2.3 2.7-4 3.9 2.1 1.2 3.6 2.5 4.7 4s1.6 3.3 1.6 5.6c0 1.6-.3 3-.9 4.2-.6 1.3-1.4 2.3-2.4 3.3s-2.3 1.6-3.7 2.1c-1.5.5-3.1.8-4.8.8-1.7 0-3.3-.2-4.7-.7-1.4-.5-2.6-1.1-3.6-2-1-.8-1.8-1.8-2.3-3-.6-1.3-.9-2.6-.9-4zm16.7-.7c0-.8-.2-1.5-.6-2.2-.4-.7-.9-1.3-1.5-1.8s-1.3-1-2-1.5-1.5-.9-2.3-1.3c-1.6.9-2.7 2-3.4 3-.6 1.1-.9 2.2-.9 3.3 0 1.4.5 2.6 1.4 3.6 1 1 2.3 1.5 4 1.5 1.6 0 2.8-.4 3.8-1.1 1.1-.8 1.5-2 1.5-3.5zm-9.4-17.8c0 .8.2 1.6.5 2.2s.7 1.2 1.3 1.6c.5.5 1.1.9 1.8 1.3s1.4.8 2.1 1.1c2.1-1.8 3.1-3.7 3.1-5.8 0-1.5-.4-2.6-1.3-3.3-.9-.7-1.9-1.1-3.1-1.1-1.5 0-2.6.4-3.4 1.2-.6.7-1 1.7-1 2.8zm44.3 11.8H110v15.5h-7.1V13.5h7.1v16.1l1.7-.7 10-15.4h8.1l-10.6 15.3-2.8 2 2.9 2 12.1 17.1h-8.8l-10.7-15.6zm20.7-2.6c0-6.1 1.3-10.7 4-14 2.7-3.3 6.5-4.9 11.4-4.9 2.6 0 4.9.5 6.8 1.4 1.9.9 3.6 2.2 4.8 3.8 1.3 1.7 2.2 3.7 2.9 6 .6 2.3.9 4.9.9 7.7 0 6.1-1.3 10.7-4 14-2.7 3.3-6.5 4.9-11.4 4.9-2.6 0-4.9-.5-6.9-1.4-1.9-.9-3.5-2.2-4.8-3.8-1.3-1.7-2.2-3.7-2.8-6-.6-2.3-.9-4.9-.9-7.7zm7.5 0c0 1.8.2 3.5.5 5.1.3 1.5.8 2.9 1.4 4 .6 1.1 1.5 2 2.5 2.6 1 .6 2.2.9 3.6.9 2.5 0 4.5-1 5.9-3 1.4-2 2.1-5.2 2.1-9.6 0-1.8-.1-3.4-.4-4.9-.3-1.5-.8-2.9-1.4-4-.6-1.1-1.4-2-2.4-2.7-1-.6-2.2-1-3.7-1-2.5 0-4.5 1-5.9 3-1.5 2-2.2 5.2-2.2 9.6zm56.7-.7l.8-7.2h-.3l-2.2 5.8-7.7 13.6H185l-8.2-13.6-2.3-5.8h-.3l1 7.2v18.9h-6.8V13.5h6.5l9.7 16.6 1.7 4.2h.2l1.6-4.3 9.2-16.5h6.4v36.4h-7.1V31zm33.3-11.2h-12.7v30.1h-7.1V13.5h27v36.4h-7.1V19.8zm31.3 22h-11.2l-2.8 8.1h-7.1l13.1-36.7h5.3l13.1 36.7h-7.5l-2.9-8.1zm-9.4-5.7h7.8l-2.7-8.1-1.1-5.7h-.3l-1.1 5.8-2.6 8zm43.3-1.5H282v15.2h-7.1V13.5h7.1v14.8h13.3V13.5h7.1v36.4h-7.1V34.6zm34.7-4.9l.4-4.7h-.3l-2.4 4.9-13.6 20h-5.4V13.5h7.1v19.8l-.5 4.9h.3l2.5-5 13.6-19.7h5.3v36.4h-7V29.7zm34.6 0l.4-4.7h-.3l-2.4 4.9-13.6 20h-5.4V13.5h7.1v19.8l-.5 4.9h.3l2.5-5 13.6-19.7h5.3v36.4h-7.1V29.7zM354.5 4.4c.1 1.1.5 1.9 1.2 2.4s1.6.7 2.6.7c2.3 0 3.6-1 3.8-3.1l5.8.9c-.4 2.2-1.4 3.8-3 4.8s-3.8 1.5-6.7 1.5c-1.4 0-2.7-.1-3.9-.3s-2.2-.5-3.1-1-1.6-1.1-2.2-1.9c-.6-.8-.9-1.8-1.1-3l6.6-1z" fill="none" stroke="#000" stroke-width="2" stroke-linejoin="round" stroke-miterlimit="10"/></svg>