<svg width="113" height="92" viewBox="0 0 113 92" fill="none" xmlns="http://www.w3.org/2000/svg">
<path d="M110.811 25.033C111.661 24.8028 112.25 24.0379 112.25 23.1643V2.23302C112.251 1.16376 111.377 0.296875 110.299 0.296875H71.8005C71.2401 0.296875 70.7079 0.534921 70.337 0.951361M110.811 25.033L110.681 24.5504C111.315 24.3784 111.75 23.8095 111.75 23.1643V2.23302V2.23276C111.75 1.4437 111.104 0.796875 110.299 0.796875H71.8005C71.382 0.796875 70.9859 0.974553 70.7104 1.28392M110.811 25.033L93.0672 29.8341L110.811 25.033ZM70.7104 1.28392C70.7104 1.28385 70.7105 1.28377 70.7106 1.2837L70.337 0.951361M70.7104 1.28392L70.337 0.951361M70.7104 1.28392C70.4349 1.59373 70.3083 2.00327 70.3593 2.41128M70.337 0.951361C69.9655 1.36892 69.7941 1.9225 69.8632 2.47385M69.8632 2.47385L70.3593 2.41128M69.8632 2.47385C69.9436 3.11106 69.9813 3.64011 69.9813 4.13683C69.9813 11.4627 63.9723 17.4245 56.5865 17.4245C49.2012 17.4245 43.1917 11.4638 43.1917 4.13738C43.1917 3.64067 43.23 3.11161 43.3098 2.47441L2.87371 0.797432M69.8632 2.47385L70.3594 2.41165C70.3593 2.41153 70.3593 2.41141 70.3593 2.41128M70.3593 2.41128C70.4416 3.06348 70.4813 3.61409 70.4813 4.13683C70.4813 11.7426 64.2447 17.9245 56.5865 17.9245C48.9289 17.9245 42.6917 11.7438 42.6917 4.13738C42.6917 3.6144 42.732 3.0638 42.8136 2.41227L42.8136 2.41214C42.8647 2.00519 42.7375 1.59427 42.4626 1.2845C42.1864 0.974912 41.7901 0.797432 41.3725 0.797432L2.87397 0.797432L2.87371 0.797432M2.87371 0.797432C2.06789 0.797987 1.42188 1.44449 1.42188 2.23413V23.166C1.42188 23.8109 1.85792 24.3802 2.49152 24.5521M2.87371 0.797432L2.49152 24.5521M2.49152 24.5521L20.2353 29.3531L20.6047 29.453V29.8357V89.767C20.6047 90.5563 21.2509 91.2031 22.0565 91.2031H91.1153C91.9209 91.2031 92.5672 90.5563 92.5672 89.767V29.8341V29.4514L92.9366 29.3514L110.681 24.5504L2.49152 24.5521ZM108.413 22.1859H108.847V21.6859V4.16972V3.66972H108.347H73.8849H73.3859L73.3849 4.16874C73.3669 13.3364 65.8421 20.7956 56.5865 20.7956C47.3309 20.7956 39.805 13.3358 39.7881 4.1688L39.7872 3.66972H39.2881H4.82554H4.32554V4.16972V21.6859V22.0686L4.69495 22.1685L22.4387 26.9695C23.0723 27.1414 23.5084 27.7107 23.5084 28.3556V87.8303V88.3303H24.0084H89.1641H89.6641V87.8303V28.3556C89.6641 27.7104 90.0992 27.1415 90.7334 26.9696C90.7335 26.9696 90.7335 26.9695 90.7336 26.9695L108.413 22.1859Z" fill="#333333" stroke="#333333"/>
<path d="M44.2936 27.979L44.2941 27.9797C44.4989 28.2327 44.6105 28.5491 44.6105 28.8743V49.8057C44.6096 50.5946 43.9639 51.2412 43.1586 51.2412H27.812C27.0065 51.2412 26.3613 50.595 26.3613 49.8062V28.8743C26.3613 28.5495 26.4726 28.2338 26.6782 27.9791L26.6782 27.979L34.3518 18.4644L34.352 18.4642C34.6116 18.1419 35.0342 17.9619 35.4858 17.9619C35.9373 17.9619 36.3603 18.1419 36.6206 18.4644C36.6206 18.4644 36.6206 18.4645 36.6206 18.4645L44.2936 27.979ZM41.2079 48.3712H41.7079V47.8712V29.5539V29.3774L41.5971 29.24L35.8748 22.1444L35.4856 21.6617L35.0964 22.1444L29.3741 29.24L29.2633 29.3774V29.5539V47.8712V48.3712H29.7633H41.2079Z" fill="#333333" stroke="#333333"/>
<path d="M34.0664 2.23277C34.0664 1.46241 34.698 0.830079 35.4845 0.830079C36.2709 0.830079 36.9026 1.46232 36.9026 2.23333V21.2614C36.9026 22.0317 36.271 22.6641 35.4845 22.6641C34.698 22.6641 34.0664 22.0317 34.0664 21.2614V2.23277Z" fill="#333333" stroke="#333333"/>
<path d="M92.5335 19.361V19.3613V34.5839C92.5335 35.3543 91.9019 35.9866 91.1154 35.9866C90.3289 35.9866 89.6973 35.3543 89.6973 34.5839V19.3607C89.6973 18.5903 90.3289 17.958 91.1154 17.958C91.9025 17.958 92.5339 18.5903 92.5335 19.361Z" fill="#333333" stroke="#333333"/>
<path d="M23.4739 19.361V19.3613V40.2926C23.4739 41.0629 22.8423 41.6953 22.0558 41.6953C21.2693 41.6953 20.6377 41.0629 20.6377 40.2926V19.3607C20.6377 18.5903 21.2693 17.958 22.0558 17.958C22.8429 17.958 23.4743 18.5903 23.4739 19.361Z" fill="#333333" stroke="#333333"/>
<path d="M64.2594 31.2432H81.5242C82.3297 31.2432 82.976 31.89 82.976 32.6793C82.976 33.4686 82.3297 34.1154 81.5242 34.1154H64.2594C63.4539 34.1154 62.8076 33.4686 62.8076 32.6793C62.8076 31.89 63.4539 31.2432 64.2594 31.2432Z" fill="#333333" stroke="#333333"/>
</svg>
