<svg width="103" height="106" viewBox="0 0 103 106" fill="none" xmlns="http://www.w3.org/2000/svg">
<path d="M90.7902 14.8134V15.3134H91.2902H93.1032C97.8318 15.319 101.666 19.1614 101.672 23.9061V96.6417C101.666 101.386 97.8319 105.229 93.1032 105.234H20.5597C15.8311 105.229 11.9966 101.386 11.9911 96.6417V94.8239V94.3239H11.4911H9.67805C4.94949 94.3183 1.11511 90.4757 1.10938 85.7315V12.9952C1.11511 8.25098 4.94949 4.40844 9.67805 4.40286H14.7229H15.0157L15.159 4.14751C16.3434 2.03635 18.5803 0.740638 20.9946 0.76599V0.766018H20.9999H26C26.3478 0.766018 26.6817 0.904707 26.9282 1.1519L30.024 4.25594L30.1706 4.40286H30.3781H61.5215H61.729L61.8755 4.25594L64.9713 1.1519C65.2179 0.904708 65.5517 0.766018 65.8996 0.766018L70.8997 0.766046L70.9049 0.76599C73.3193 0.740638 75.5561 2.03635 76.7406 4.14751L76.8838 4.40286H77.1766H82.2215C86.9502 4.40844 90.7846 8.25114 90.7902 12.9955V14.8134ZM66.6504 3.40286H66.4429L66.2964 3.54977L48.1602 21.734L47.8081 22.0871L48.1602 22.4401L54.6638 28.961L55.0179 29.316L55.3719 28.961L73.8134 10.4705C73.8145 10.4694 73.8157 10.4683 73.8168 10.4672C75.0243 9.29797 75.3812 7.501 74.7136 5.95796C74.0978 4.39154 72.5758 3.37232 70.895 3.40286H66.6504ZM58.2483 7.89278L59.0991 7.0397H57.8942H34.0053H32.8004L33.6513 7.89278L45.5958 19.8689L45.9498 20.2239L46.3038 19.8689L58.2483 7.89278ZM25.6032 3.54977L25.4567 3.40286H25.2492H21.004C19.3267 3.3762 17.81 4.39473 17.1953 5.95729C16.5251 7.49841 16.8782 9.29529 18.0823 10.4668L36.5277 28.961L36.8817 29.316L37.2357 28.961L43.7393 22.4401L44.0915 22.0871L43.7393 21.734L25.6032 3.54977ZM14.2436 7.54287L14.2468 7.0397H13.7436H9.67745C6.39513 7.0397 3.73661 9.70717 3.73661 12.995V85.7318C3.73661 89.0195 6.39513 91.687 9.67745 91.687H82.2221C85.5044 91.687 88.1629 89.0195 88.1629 85.7318V12.995C88.1629 9.70717 85.5044 7.0397 82.2221 7.0397H78.156H77.6528L77.656 7.54287C77.6674 9.33983 76.9542 11.065 75.6788 12.3267L75.6764 12.3291L55.9461 32.1116C55.4333 32.6257 54.6025 32.6257 54.0896 32.1116L48.1174 26.1236L47.2634 25.2674V26.4767V32.4976H44.6362V26.4767V25.2674L43.7821 26.1236L37.81 32.1116C37.2971 32.6257 36.4663 32.6257 35.9534 32.1116L16.2232 12.3291L16.2232 12.3291L16.2208 12.3267C14.9453 11.065 14.2322 9.33983 14.2436 7.54287ZM15.1183 94.3239H14.6183V94.8239V96.6423C14.6183 99.9301 17.2768 102.598 20.5592 102.598H93.1038C96.3861 102.598 99.0446 99.9301 99.0446 96.6423V23.9055C99.0446 20.6177 96.3861 17.9502 93.1038 17.9502H91.2902H90.7902V18.4502V85.7312C90.7846 90.4756 86.9502 94.3183 82.2215 94.3239H15.1183Z" fill="#333333" stroke="#333333"/>
<path d="M44.6357 39.7706V37.1338H47.263V39.7706H44.6357Z" fill="#333333" stroke="#333333"/>
<path d="M68.2129 50.6818V48.0449H70.8401V50.6818H68.2129Z" fill="#333333" stroke="#333333"/>
<path d="M44.6357 63.4103V60.7734H47.263V63.4103H44.6357Z" fill="#333333" stroke="#333333"/>
<path d="M44.6357 56.1362V44.4072H47.263V56.1362H44.6357Z" fill="#333333" stroke="#333333"/>
<path d="M44.6357 87.0499V84.4131H47.263V87.0499H44.6357Z" fill="#333333" stroke="#333333"/>
<path d="M44.6357 79.7768V68.0479H47.263V79.7768H44.6357Z" fill="#333333" stroke="#333333"/>
<path d="M75.2684 52.4908L75.4679 52.3408V52.0912V43.9083V43.4083H74.9679H64.0862H63.5862V43.9083V52.0912V52.3408L63.7857 52.4908L69.2266 56.5823L69.5271 56.8083L69.8276 56.5823L75.2684 52.4908ZM62.2726 40.7715H76.7815C77.5058 40.7715 78.0951 41.3604 78.0951 42.0899V53.0004C78.0951 53.4158 77.9 53.8067 77.5692 54.0555C77.5692 54.0556 77.5691 54.0556 77.5691 54.0556L70.3147 59.5108C69.848 59.8618 69.2062 59.8618 68.7394 59.5108L61.485 54.0556C61.485 54.0556 61.485 54.0556 61.4849 54.0555C61.1541 53.8067 60.959 53.4158 60.959 53.0004V42.0899C60.959 41.3606 61.5484 40.7715 62.2726 40.7715Z" fill="#333333" stroke="#333333"/>
</svg>
