<svg width="99" height="106" viewBox="0 0 99 106" fill="none" xmlns="http://www.w3.org/2000/svg">
<path d="M97.2205 29.3634C97.0876 29.2852 96.9514 29.2167 96.8127 29.157L90.6076 9.59221C89.9194 7.40288 88.2085 5.66275 86.0314 4.937L72.8406 0.540345C72.2938 0.358109 71.7244 0.265625 71.1478 0.265625H66.1703C64.3673 0.265625 62.8597 1.61143 62.6638 3.39597C61.9479 9.92274 56.448 14.8445 49.8711 14.8445C43.2943 14.8445 37.7944 9.92274 37.0782 3.39597C36.8823 1.61143 35.3748 0.265625 33.5718 0.265625H28.5942C28.0179 0.265625 27.4484 0.358109 26.9013 0.540345L13.7109 4.93723C11.5336 5.66298 9.82286 7.4031 9.1356 9.58856L2.92935 29.1572C2.79062 29.2167 2.6544 29.2852 2.5216 29.3636C1.43183 30.0046 0.78125 31.1425 0.78125 32.4067V35.5268C0.78125 36.8082 1.47716 37.9909 2.59745 38.6132L17.1827 46.7158V94.9141C17.1827 96.2415 17.9196 97.3989 19.005 98.0019V102.204C19.005 104.151 20.5889 105.734 22.5358 105.734H77.2065C79.1534 105.734 80.7373 104.151 80.7373 102.204V98.0019C81.8227 97.3989 82.5596 96.2415 82.5596 94.9141V46.7158L97.1446 38.613C98.2649 37.9906 98.9608 36.8079 98.9608 35.5266V32.4065C98.9608 31.1422 98.3104 30.0046 97.2205 29.3634ZM93.345 29.5258L82.5596 35.5177V28.0536C82.5596 26.6806 82.8113 25.3358 83.3082 24.0562L87.877 12.285L93.345 29.5258ZM33.6818 3.76865C34.5884 12.0307 41.5485 18.2614 49.8711 18.2614C58.1938 18.2614 65.1539 12.0307 66.0605 3.76865C66.0659 3.72126 66.1152 3.68254 66.1705 3.68254H69.9564C69.5521 8.5136 67.4436 12.9984 63.9411 16.4121C60.1551 20.102 55.1587 22.1339 49.8711 22.1339C44.5594 22.1339 39.5459 20.0855 35.7545 16.3666C32.2775 12.9556 30.1897 8.49082 29.7874 3.68254H33.5718C33.6271 3.68254 33.6763 3.72126 33.6818 3.76865ZM26.4092 4.30624C26.9468 9.80269 29.376 14.8959 33.362 18.806C37.7958 23.1553 43.659 25.5508 49.8711 25.5508C56.0548 25.5508 61.8984 23.1742 66.3259 18.8591C70.3407 14.9458 72.7927 9.82934 73.3335 4.30647L84.951 8.17897C85.2064 8.26416 85.4471 8.37943 85.6747 8.51474L80.1227 22.8195C79.4725 24.4947 79.1427 26.2558 79.1427 28.0533V38.4212V45.7106V84.0939H20.5996V45.7106V38.4212V28.0533C20.5996 26.2558 20.27 24.4947 19.6196 22.8195L14.0673 8.51451C14.2949 8.37943 14.5357 8.26394 14.7911 8.17897L26.4092 4.30624ZM79.1427 94.9141C79.1427 94.977 79.0915 95.028 79.0288 95.028H20.7135C20.6508 95.028 20.5996 94.977 20.5996 94.9141V87.5108H79.1427V94.9141ZM11.8653 12.2843L16.4341 24.056C16.931 25.3355 17.1827 26.6804 17.1827 28.0533V35.5175L6.39729 29.5258L11.8653 12.2843ZM4.25716 35.6261C4.22094 35.6061 4.19839 35.5678 4.19839 35.5266V32.4065C4.19839 32.3805 4.19839 32.3413 4.25443 32.3083C4.27766 32.2946 4.29725 32.2899 4.31366 32.2899C4.33712 32.2899 4.3542 32.2994 4.36742 32.3069L17.1827 39.4264V42.8069L4.25716 35.6261ZM77.2065 102.317H22.5358C22.4732 102.317 22.4219 102.266 22.4219 102.204V98.445H77.3204V102.204C77.3204 102.266 77.2691 102.317 77.2065 102.317ZM95.5439 35.5266C95.5439 35.5678 95.5213 35.6061 95.4851 35.6261L82.5596 42.8069V39.4264L95.3749 32.3069C95.3976 32.2942 95.4318 32.2755 95.4879 32.3083C95.5439 32.3413 95.5439 32.3805 95.5439 32.4065V35.5266Z" fill="#333333"/>
<path d="M36.5738 47.3314C37.4689 47.6294 38.4365 47.146 38.7349 46.2508L40.1678 41.9518H40.8728V65.8702H38.9365C37.9928 65.8702 37.2281 66.6352 37.2281 67.5787C37.2281 68.5222 37.9928 69.2872 38.9365 69.2872H46.2259C47.1697 69.2872 47.9344 68.5222 47.9344 67.5787C47.9344 66.6352 47.1697 65.8702 46.2259 65.8702H44.2897V40.2436C44.2897 39.3001 43.525 38.5352 42.5812 38.5352H38.9365C38.201 38.5352 37.5481 39.0058 37.3158 39.7033L35.4934 45.1703C35.195 46.0656 35.6788 47.033 36.5738 47.3314Z" fill="#333333"/>
<path d="M56.9331 69.2874H57.3887C61.2195 69.2874 64.3364 66.1707 64.3364 62.3397V45.4829C64.3364 41.6518 61.2195 38.5352 57.3887 38.5352H56.9331C53.1023 38.5352 49.9854 41.6518 49.9854 45.4829V62.3397C49.9854 66.1707 53.1023 69.2874 56.9331 69.2874ZM53.4023 45.4829C53.4023 43.5359 54.9861 41.9521 56.9331 41.9521H57.3887C59.3356 41.9521 60.9195 43.5359 60.9195 45.4829V62.3397C60.9195 64.2866 59.3356 65.8705 57.3887 65.8705H56.9331C54.9861 65.8705 53.4023 64.2866 53.4023 62.3397V45.4829Z" fill="#333333"/>
</svg>
