<svg width="98" height="106" viewBox="0 0 98 106" fill="none" xmlns="http://www.w3.org/2000/svg">
<path d="M96.5237 48.3274L96.5237 48.3277C96.6458 49.0631 96.2763 49.7915 95.616 50.1241C95.4494 50.2069 90.8187 52.5007 83.9424 52.5007C82.5058 52.5007 81.0744 52.3641 79.6441 52.1634L79.0746 52.0834V52.6585V99.1427C79.0746 99.7108 78.7922 100.241 78.3236 100.556L78.3228 100.556C78.1406 100.679 71.1801 105.234 48.9996 105.234C26.8191 105.234 19.8588 100.679 19.6763 100.556L19.6756 100.556C19.207 100.241 18.9246 99.711 18.9246 99.1427V52.6587V52.0837L18.3551 52.1636C16.9248 52.3643 15.4933 52.5009 14.0568 52.5009C7.19044 52.5009 2.56322 50.2138 2.38398 50.1247C1.72405 49.792 1.35415 49.0632 1.47628 48.3277L1.47633 48.3274C1.70284 46.958 2.84467 40.2122 4.49064 32.9641C5.31372 29.3396 6.26129 25.5965 7.28164 22.3404C8.30623 19.0707 9.39018 16.3392 10.4727 14.7053L10.4727 14.7053C13.135 10.6865 17.1496 7.59334 21.0759 5.31424C24.9978 3.03766 28.7986 1.59221 30.9964 0.855152L30.9986 0.854371C31.6028 0.6485 32.268 0.807631 32.7166 1.26228L32.7179 1.26359C32.9584 1.50557 33.3316 1.72867 33.7574 1.93498C34.1949 2.14696 34.7333 2.36231 35.3411 2.57547C36.5578 3.00209 38.0838 3.43063 39.7043 3.81222C42.9363 4.57328 46.605 5.16176 49 5.16176C51.395 5.16176 55.0637 4.57328 58.2957 3.81222C59.9162 3.43063 61.4422 3.00209 62.6588 2.57547C63.2667 2.36231 63.8051 2.14696 64.2426 1.93498C64.6684 1.72867 65.0415 1.50557 65.2821 1.26359L65.2827 1.2629C65.734 0.807139 66.4017 0.648925 67.0006 0.85411L67.0036 0.855146C69.2014 1.59221 73.0022 3.03766 76.9241 5.31424C80.8503 7.59334 84.865 10.6865 87.5273 14.7053L87.9441 14.4292L87.5273 14.7053C88.6098 16.3392 89.6938 19.0708 90.7184 22.3405C91.7387 25.5967 92.6863 29.3398 93.5093 32.9642C95.1553 40.2124 96.2971 46.9581 96.5237 48.3274ZM18.4246 53.1636V99.1427C18.4246 99.8767 18.7892 100.563 19.3971 100.971C19.6872 101.166 26.755 105.734 48.9996 105.734C71.2442 105.734 78.3122 101.166 78.6021 100.971L18.4246 53.1636ZM61.9579 7.25521L62.8886 6.05073L61.425 6.4687C56.9267 7.75322 51.505 8.55634 49.0002 8.55634C46.4954 8.55634 41.0739 7.75343 36.5754 6.4687L35.1118 6.05069L36.0425 7.25519C38.9091 10.9651 43.3621 13.9507 49.0002 13.9507C54.6383 13.9507 59.0911 10.9651 61.9579 7.25521ZM79.0754 48.2104V48.6349L79.4943 48.7038C80.9508 48.9433 82.4359 49.1063 83.9432 49.1063C87.8273 49.1063 90.8696 48.2963 92.5769 47.7032L92.979 47.5636L92.9053 47.1444C92.1811 43.02 90.9351 36.5974 89.4777 30.6118C88.7491 27.6193 87.9662 24.7296 87.1674 22.2882C86.373 19.86 85.5492 17.8309 84.7274 16.5907C82.6189 13.4082 79.471 10.8681 76.3335 8.92291C73.1917 6.97514 70.0302 5.60556 67.862 4.77588L67.4244 4.60842L67.2289 5.03427C64.3465 11.3137 57.8514 17.3453 49.0006 17.3453C40.1498 17.3453 33.6545 11.3137 30.7723 5.03429L30.5769 4.60841L30.1392 4.77588C27.9711 5.60556 24.8095 6.97519 21.6677 8.92299C18.5302 10.8682 15.3823 13.4083 13.2739 16.5907C12.452 17.8305 11.6283 19.8585 10.8341 22.2857C10.0356 24.7261 9.25285 27.6147 8.52452 30.6062C7.06768 36.5899 5.82216 43.0115 5.09791 47.1381L5.02427 47.5577L5.42689 47.697C7.14548 48.2917 10.2068 49.1063 14.0574 49.1063C15.5646 49.1063 17.0498 48.9431 18.5062 48.7038L18.9252 48.635V48.2104V37.6203C18.9252 30.1838 17.2978 27.9244 17.1853 27.7825L17.1681 27.7609L17.1487 27.7413C16.5038 27.0907 16.5207 26.0626 17.1929 25.3861C17.8349 24.7422 18.9456 24.7618 19.6149 25.4333C19.9626 25.7833 22.2932 28.471 22.2932 37.6203V97.7883V98.1174L22.5954 98.2476C25.1451 99.3454 32.7296 101.84 49.0004 101.84C65.2455 101.84 72.8301 99.3541 75.4053 98.2455L75.7076 98.1154V97.7863V37.6203C75.7076 28.4696 78.0389 25.7824 78.3861 25.4331L78.3861 25.4331C79.0435 24.7715 80.1073 24.7715 80.765 25.4331C81.4028 26.0748 81.4241 27.106 80.8263 27.7721L80.8087 27.7917L80.7933 27.8131C80.5858 28.1 79.0754 30.4554 79.0754 37.6203V48.2104Z" fill="#333333" stroke="#333333"/>
<path d="M38.0809 56.8951H37.5809V57.3951V59.5924C37.5809 60.5336 36.8251 61.2896 35.8969 61.2896C34.9687 61.2896 34.2129 60.5336 34.2129 59.5924V46.409C34.2129 43.0474 36.9308 40.3174 40.2647 40.3174C43.5984 40.3174 46.3165 43.0476 46.3167 46.409C46.3167 46.4091 46.3167 46.4091 46.3167 46.4091V59.5924C46.3167 60.5336 45.5609 61.2896 44.6327 61.2896C43.7045 61.2896 42.9487 60.5336 42.9487 59.5924V57.3951V56.8951H42.4487H38.0809ZM37.5807 53.0007V53.5007H38.0807H42.4485H42.4487H42.9487V53.0007V46.409C42.9487 44.9233 41.7486 43.7118 40.2647 43.7118C38.7805 43.7118 37.5807 44.9235 37.5807 46.409V53.0007Z" fill="#333333" stroke="#333333"/>
<path d="M55.0524 57.3953V57.8953H55.5524H57.7364C59.2205 57.8953 60.4204 56.6835 60.4204 55.198V46.4092C60.4204 44.9235 59.2203 43.712 57.7364 43.712H55.5524H55.0524V44.212V57.3953ZM53.3686 40.3174H57.7364C61.0703 40.3174 63.7882 43.0476 63.7882 46.409V55.198C63.7882 58.5596 61.0703 61.2896 57.7364 61.2896H53.3686C52.4404 61.2896 51.6846 60.5336 51.6846 59.5924V42.0147C51.6846 41.0734 52.4404 40.3174 53.3686 40.3174Z" fill="#333333" stroke="#333333"/>
</svg>
