<?xml version="1.0" encoding="utf-8"?>
<!-- Generator: Adobe Illustrator 23.0.2, SVG Export Plug-In . SVG Version: 6.00 Build 0)  -->
<svg version="1.1" id="Слой_1" xmlns="http://www.w3.org/2000/svg" xmlns:xlink="http://www.w3.org/1999/xlink" x="0px" y="0px"
	 viewBox="0 0 89.9 24" style="enable-background:new 0 0 89.9 24;" xml:space="preserve">
<style type="text/css">
	.st0{fill:#333333;}
	.st1{fill:#FFFFFF;}
</style>
<rect class="st0" width="89.9" height="24"/>
<path class="st1" d="M16.3,14.8c0-2.5-1.1-3.9-4.6-3.9H9.7V9h5.5V6.3H6.5V19h5.2C14.5,19,16.3,17.4,16.3,14.8z M9.7,16.2v-2.9h1.9
	c1,0,1.5,0.5,1.5,1.4c0,0.9-0.4,1.5-1.5,1.5H9.7z M25,19h3.2V6.3h-3l-3.3,5.4L21,14l-0.1,0c0,0,0.3-1.9,0.3-1.9V6.3H18V19h3l3.1-5
	l1.2-2.5l0.1,0c0,0-0.3,2.4-0.3,2.4V19z M37.6,12.2c0.9-0.5,1.4-1.6,1.4-2.4c0-2.3-1.6-3.7-4.4-3.7c-1.9,0-3.2,0.7-4.2,1.9L32,9.7
	c0.4-0.3,1.4-0.9,2.3-0.9c1.1,0,1.6,0.5,1.6,1.2c0,0.8-0.6,1.3-1.5,1.3h-1.8v2.2h1.9c1,0,1.7,0.5,1.7,1.5s-0.8,1.4-2.1,1.4
	c-0.8,0-1.7-0.5-2.4-1.3l-2.1,1.6c1,1.6,2.7,2.5,4.7,2.5c3.2,0,5.1-1.5,5.1-4C39.4,14.1,38.9,12.9,37.6,12.2z M44.5,14.2h3.7V19h3.2
	V6.3h-3.2v4.8h-3.7V6.3h-3.2V19h3.2V14.2z M57,9.3h5.6v-3h-8.9V19h8.9v-3H57v-1.9h5.2v-2.8H57V9.3z M71.1,15
	c-0.7,1.8-3.6,1.3-3.6-0.2v-4.4c0-1.6,2.8-1.9,3.7-0.4L73.9,9c-1-2.3-2.9-2.9-4.5-2.9c-2.6,0-5.1,1.5-5.1,4.4v4.4
	c0,2.9,2.5,4.4,5,4.4c1.6,0,3.5-0.8,4.6-2.9L71.1,15z M78.6,9l-1.3-2.8h-3.7l4.2,8.6L76,19h3.5l5.8-12.7h-3.6l-1.2,2.6l-1,2.5h-0.1
	L78.6,9z"/>
</svg>
