<?xml version="1.0" encoding="utf-8"?>
<!-- Generator: Adobe Illustrator 23.0.2, SVG Export Plug-In . SVG Version: 6.00 Build 0)  -->
<svg version="1.1" id="Слой_1" xmlns="http://www.w3.org/2000/svg" xmlns:xlink="http://www.w3.org/1999/xlink" x="0px" y="0px"
	 viewBox="0 0 373 52" style="enable-background:new 0 0 373 52;" xml:space="preserve">
<style type="text/css">
	.st0{fill:none;stroke:#000000;stroke-width:2;stroke-linejoin:round;stroke-miterlimit:10;}
</style>
<g>
	<path class="st0" d="M3.6,49.9l11.9-28l2.3-2.5l-3.1,0.5H1.3v-6.3h23.5v2L10.2,49.9H3.6z"/>
	<path class="st0" d="M56.4,39.7h-5.7v10.1h-6.3V39.7H28.6v-3.8l16.5-22.7h5.6v21.1h5.7V39.7z M44.4,26.4l0.5-4.4h-0.2l-1.8,3.7
		l-5.4,7l-2.6,2l3.3-0.4h6.2V26.4z"/>
	<path class="st0" d="M60.3,41c0-1.2,0.2-2.3,0.5-3.3s0.8-1.8,1.3-2.6c0.6-0.8,1.2-1.5,2-2.1c0.8-0.6,1.6-1.2,2.5-1.7
		c-1.7-1.1-3-2.3-4-3.7c-1-1.4-1.5-3.1-1.5-5.2c0-1.4,0.3-2.6,0.8-3.8c0.5-1.2,1.2-2.2,2.2-3.1c1-0.9,2.1-1.5,3.5-2
		c1.4-0.5,2.9-0.7,4.6-0.7c1.6,0,3,0.2,4.3,0.6c1.3,0.4,2.4,1,3.3,1.8c0.9,0.8,1.6,1.7,2.1,2.8c0.5,1.1,0.8,2.3,0.8,3.6
		c0,2-0.5,3.8-1.4,5.2c-0.9,1.4-2.3,2.7-4,3.9c2.1,1.2,3.6,2.5,4.7,4c1.1,1.5,1.6,3.3,1.6,5.6c0,1.6-0.3,3-0.9,4.2
		c-0.6,1.3-1.4,2.3-2.4,3.3s-2.3,1.6-3.7,2.1c-1.5,0.5-3.1,0.8-4.8,0.8c-1.7,0-3.3-0.2-4.7-0.7c-1.4-0.5-2.6-1.1-3.6-2
		c-1-0.8-1.8-1.8-2.3-3C60.6,43.7,60.3,42.4,60.3,41z M77,40.3c0-0.8-0.2-1.5-0.6-2.2c-0.4-0.7-0.9-1.3-1.5-1.8
		c-0.6-0.5-1.3-1-2-1.5c-0.7-0.5-1.5-0.9-2.3-1.3c-1.6,0.9-2.7,2-3.4,3c-0.6,1.1-0.9,2.2-0.9,3.3c0,1.4,0.5,2.6,1.4,3.6
		c1,1,2.3,1.5,4,1.5c1.6,0,2.8-0.4,3.8-1.1C76.6,43,77,41.8,77,40.3z M67.6,22.5c0,0.8,0.2,1.6,0.5,2.2s0.7,1.2,1.3,1.6
		c0.5,0.5,1.1,0.9,1.8,1.3c0.7,0.4,1.4,0.8,2.1,1.1c2.1-1.8,3.1-3.7,3.1-5.8c0-1.5-0.4-2.6-1.3-3.3c-0.9-0.7-1.9-1.1-3.1-1.1
		c-1.5,0-2.6,0.4-3.4,1.2C68,20.4,67.6,21.4,67.6,22.5z"/>
	<path class="st0" d="M111.9,34.3H110v15.5h-7.1V13.5h7.1v16.1l1.7-0.7l10-15.4h8.1l-10.6,15.3l-2.8,2l2.9,2l12.1,17.1h-8.8
		L111.9,34.3z"/>
	<path class="st0" d="M132.6,31.7c0-6.1,1.3-10.7,4-14c2.7-3.3,6.5-4.9,11.4-4.9c2.6,0,4.9,0.5,6.8,1.4c1.9,0.9,3.6,2.2,4.8,3.8
		c1.3,1.7,2.2,3.7,2.9,6c0.6,2.3,0.9,4.9,0.9,7.7c0,6.1-1.3,10.7-4,14c-2.7,3.3-6.5,4.9-11.4,4.9c-2.6,0-4.9-0.5-6.9-1.4
		c-1.9-0.9-3.5-2.2-4.8-3.8c-1.3-1.7-2.2-3.7-2.8-6C132.9,37.1,132.6,34.5,132.6,31.7z M140.1,31.7c0,1.8,0.2,3.5,0.5,5.1
		c0.3,1.5,0.8,2.9,1.4,4c0.6,1.1,1.5,2,2.5,2.6c1,0.6,2.2,0.9,3.6,0.9c2.5,0,4.5-1,5.9-3c1.4-2,2.1-5.2,2.1-9.6
		c0-1.8-0.1-3.4-0.4-4.9c-0.3-1.5-0.8-2.9-1.4-4c-0.6-1.1-1.4-2-2.4-2.7c-1-0.6-2.2-1-3.7-1c-2.5,0-4.5,1-5.9,3
		C140.8,24.1,140.1,27.3,140.1,31.7z"/>
	<path class="st0" d="M196.8,31l0.8-7.2h-0.3l-2.2,5.8l-7.7,13.6H185l-8.2-13.6l-2.3-5.8h-0.3l1,7.2v18.9h-6.8V13.5h6.5l9.7,16.6
		l1.7,4.2h0.2l1.6-4.3l9.2-16.5h6.4v36.4h-7.1V31z"/>
	<path class="st0" d="M230.1,19.8h-12.7v30.1h-7.1V13.5h27v36.4h-7.1V19.8z"/>
	<path class="st0" d="M261.4,41.8h-11.2l-2.8,8.1h-7.1l13.1-36.7h5.3l13.1,36.7h-7.5L261.4,41.8z M252,36.1h7.8l-2.7-8.1l-1.1-5.7
		h-0.3l-1.1,5.8L252,36.1z"/>
	<path class="st0" d="M295.3,34.6H282v15.2h-7.1V13.5h7.1v14.8h13.3V13.5h7.1v36.4h-7.1V34.6z"/>
	<path class="st0" d="M330,29.7l0.4-4.7h-0.3l-2.4,4.9l-13.6,20h-5.4V13.5h7.1v19.8l-0.5,4.9h0.3l2.5-5l13.6-19.7h5.3v36.4H330V29.7
		z"/>
	<path class="st0" d="M364.6,29.7L365,25h-0.3l-2.4,4.9l-13.6,20h-5.4V13.5h7.1v19.8l-0.5,4.9h0.3l2.5-5l13.6-19.7h5.3v36.4h-7.1
		V29.7z M354.5,4.4c0.1,1.1,0.5,1.9,1.2,2.4s1.6,0.7,2.6,0.7c2.3,0,3.6-1,3.8-3.1l5.8,0.9c-0.4,2.2-1.4,3.8-3,4.8s-3.8,1.5-6.7,1.5
		c-1.4,0-2.7-0.1-3.9-0.3s-2.2-0.5-3.1-1s-1.6-1.1-2.2-1.9c-0.6-0.8-0.9-1.8-1.1-3L354.5,4.4z"/>
</g>
</svg>
