<svg width="122" height="18" xmlns="http://www.w3.org/2000/svg" xmlns:xlink="http://www.w3.org/1999/xlink"><g transform="translate(.3 .94)" fill="#333"><use xlink:href="#path0_fill"/><use xlink:href="#path1_fill"/><use xlink:href="#path2_fill"/><use xlink:href="#path3_fill"/><use xlink:href="#path4_fill"/><use xlink:href="#path5_fill"/><use xlink:href="#path6_fill"/><use xlink:href="#path7_fill"/></g><defs><path id="path0_fill" d="M4.113 11.273v5.79H0V0h6.809c1.304 0 2.457.242 3.457.727 1.007.476 1.785 1.16 2.332 2.05.554.883.832 1.887.832 3.012 0 1.664-.598 2.996-1.793 3.996-1.188.992-2.82 1.488-4.899 1.488H4.113zm0-3.175H6.81c.796 0 1.402-.2 1.816-.598.422-.398.633-.96.633-1.688 0-.796-.215-1.433-.645-1.91-.43-.476-1.015-.718-1.758-.726H4.113v4.922z"/><path id="path1_fill" d="M21.973 11.04h-2.227v6.023h-4.113V0h6.715c2.023 0 3.605.45 4.746 1.348 1.14.898 1.71 2.168 1.71 3.808 0 1.188-.241 2.172-.726 2.953-.476.782-1.226 1.414-2.25 1.899l3.563 6.879v.175h-4.407l-3.011-6.023zm-2.227-3.177h2.602c.78 0 1.367-.203 1.758-.61.398-.413.597-.987.597-1.722 0-.734-.2-1.308-.598-1.722-.398-.422-.984-.633-1.757-.633h-2.602v4.687z"/><path id="path2_fill" d="M35.672 17.063H31.57V0h4.102v17.063z"/><path id="path3_fill" d="M52.781 17.063h-4.09L42.644 6.444v10.617h-4.113V0h4.114l6.035 10.617V0h4.101v17.063z"/><path id="path4_fill" d="M68.426 3.176h-5.121v13.886H59.19V3.177h-5.027V0h14.262v3.176z"/><path id="path5_fill" d="M75.445 17.063V0h6.13c2.194 0 3.862.402 5.003 1.207 1.149.805 1.723 1.973 1.723 3.504 0 .883-.203 1.637-.61 2.262-.406.625-1.004 1.086-1.793 1.382.891.235 1.575.672 2.051 1.313.477.64.715 1.422.715 2.344 0 1.672-.531 2.93-1.594 3.773-1.054.836-2.62 1.262-4.699 1.277h-6.926zm4.114-7.254v4.09h2.695c.742 0 1.312-.168 1.71-.504.4-.344.599-.825.599-1.442 0-1.422-.707-2.137-2.122-2.144H79.56zm0-2.696h2.144c.899-.008 1.54-.172 1.922-.492.383-.32.574-.793.574-1.418 0-.719-.207-1.234-.62-1.547-.415-.32-1.083-.48-2.005-.48H79.56v3.937z"/><path id="path6_fill" d="M100.629 13.875h-5.637l-.984 3.188h-4.395L95.871 0h3.867l6.305 17.063h-4.418l-.996-3.188zm-4.652-3.176h3.667l-1.84-5.918-1.827 5.918z"/><path id="path7_fill" d="M113.637 11.04h-2.227v6.023h-4.113V0h6.715c2.023 0 3.605.45 4.746 1.348 1.14.898 1.711 2.168 1.711 3.808 0 1.188-.242 2.172-.727 2.953-.476.782-1.226 1.414-2.25 1.899l3.563 6.879v.175h-4.407l-3.011-6.023zm-2.227-3.177h2.602c.781 0 1.367-.203 1.758-.61.398-.413.597-.987.597-1.722 0-.734-.199-1.308-.597-1.722-.399-.422-.985-.633-1.758-.633h-2.602v4.687z"/></defs></svg>