<svg width="122" height="18" viewBox="0 0 122 18" version="1.1" xmlns="http://www.w3.org/2000/svg" xmlns:xlink="http://www.w3.org/1999/xlink">
<title>Print Bar</title>
<desc>Created using Figma</desc>
<g id="Canvas" transform="translate(-18719 -3437)">
<g id="Print Bar">
<use xlink:href="#path0_fill" transform="translate(18719.3 3437.94)" fill="#333333"/>
<use xlink:href="#path1_fill" transform="translate(18719.3 3437.94)" fill="#333333"/>
<use xlink:href="#path2_fill" transform="translate(18719.3 3437.94)" fill="#333333"/>
<use xlink:href="#path3_fill" transform="translate(18719.3 3437.94)" fill="#333333"/>
<use xlink:href="#path4_fill" transform="translate(18719.3 3437.94)" fill="#333333"/>
<use xlink:href="#path5_fill" transform="translate(18719.3 3437.94)" fill="#333333"/>
<use xlink:href="#path6_fill" transform="translate(18719.3 3437.94)" fill="#333333"/>
<use xlink:href="#path7_fill" transform="translate(18719.3 3437.94)" fill="#333333"/>
</g>
</g>
<defs>
<path id="path0_fill" d="M 4.11328 11.2734L 4.11328 17.0625L 0 17.0625L 0 0L 6.80859 0C 8.11328 0 9.26562 0.242188 10.2656 0.726562C 11.2734 1.20312 12.0508 1.88672 12.5977 2.77734C 13.1523 3.66016 13.4297 4.66406 13.4297 5.78906C 13.4297 7.45312 12.832 8.78516 11.6367 9.78516C 10.4492 10.7773 8.81641 11.2734 6.73828 11.2734L 4.11328 11.2734ZM 4.11328 8.09766L 6.80859 8.09766C 7.60547 8.09766 8.21094 7.89844 8.625 7.5C 9.04688 7.10156 9.25781 6.53906 9.25781 5.8125C 9.25781 5.01562 9.04297 4.37891 8.61328 3.90234C 8.18359 3.42578 7.59766 3.18359 6.85547 3.17578L 4.11328 3.17578L 4.11328 8.09766Z"/>
<path id="path1_fill" d="M 21.9727 11.0391L 19.7461 11.0391L 19.7461 17.0625L 15.6328 17.0625L 15.6328 0L 22.3477 0C 24.3711 0 25.9531 0.449219 27.0938 1.34766C 28.2344 2.24609 28.8047 3.51562 28.8047 5.15625C 28.8047 6.34375 28.5625 7.32812 28.0781 8.10938C 27.6016 8.89062 26.8516 9.52344 25.8281 10.0078L 29.3906 16.8867L 29.3906 17.0625L 24.9844 17.0625L 21.9727 11.0391ZM 19.7461 7.86328L 22.3477 7.86328C 23.1289 7.86328 23.7148 7.66016 24.1055 7.25391C 24.5039 6.83984 24.7031 6.26562 24.7031 5.53125C 24.7031 4.79688 24.5039 4.22266 24.1055 3.80859C 23.707 3.38672 23.1211 3.17578 22.3477 3.17578L 19.7461 3.17578L 19.7461 7.86328Z"/>
<path id="path2_fill" d="M 35.6719 17.0625L 31.5703 17.0625L 31.5703 0L 35.6719 0L 35.6719 17.0625Z"/>
<path id="path3_fill" d="M 52.7812 17.0625L 48.6914 17.0625L 42.6445 6.44531L 42.6445 17.0625L 38.5312 17.0625L 38.5312 0L 42.6445 0L 48.6797 10.6172L 48.6797 0L 52.7812 0L 52.7812 17.0625Z"/>
<path id="path4_fill" d="M 68.4258 3.17578L 63.3047 3.17578L 63.3047 17.0625L 59.1914 17.0625L 59.1914 3.17578L 54.1641 3.17578L 54.1641 0L 68.4258 0L 68.4258 3.17578Z"/>
<path id="path5_fill" d="M 75.4453 17.0625L 75.4453 0L 81.5742 0C 83.7695 0 85.4375 0.402344 86.5781 1.20703C 87.7266 2.01172 88.3008 3.17969 88.3008 4.71094C 88.3008 5.59375 88.0977 6.34766 87.6914 6.97266C 87.2852 7.59766 86.6875 8.05859 85.8984 8.35547C 86.7891 8.58984 87.4727 9.02734 87.9492 9.66797C 88.4258 10.3086 88.6641 11.0898 88.6641 12.0117C 88.6641 13.6836 88.1328 14.9414 87.0703 15.7852C 86.0156 16.6211 84.4492 17.0469 82.3711 17.0625L 75.4453 17.0625ZM 79.5586 9.80859L 79.5586 13.8984L 82.2539 13.8984C 82.9961 13.8984 83.5664 13.7305 83.9648 13.3945C 84.3633 13.0508 84.5625 12.5703 84.5625 11.9531C 84.5625 10.5312 83.8555 9.81641 82.4414 9.80859L 79.5586 9.80859ZM 79.5586 7.11328L 81.7031 7.11328C 82.6016 7.10547 83.2422 6.94141 83.625 6.62109C 84.0078 6.30078 84.1992 5.82812 84.1992 5.20312C 84.1992 4.48438 83.9922 3.96875 83.5781 3.65625C 83.1641 3.33594 82.4961 3.17578 81.5742 3.17578L 79.5586 3.17578L 79.5586 7.11328Z"/>
<path id="path6_fill" d="M 100.629 13.875L 94.9922 13.875L 94.0078 17.0625L 89.6133 17.0625L 95.8711 0L 99.7383 0L 106.043 17.0625L 101.625 17.0625L 100.629 13.875ZM 95.9766 10.6992L 99.6445 10.6992L 97.8047 4.78125L 95.9766 10.6992Z"/>
<path id="path7_fill" d="M 113.637 11.0391L 111.41 11.0391L 111.41 17.0625L 107.297 17.0625L 107.297 0L 114.012 0C 116.035 0 117.617 0.449219 118.758 1.34766C 119.898 2.24609 120.469 3.51562 120.469 5.15625C 120.469 6.34375 120.227 7.32812 119.742 8.10938C 119.266 8.89062 118.516 9.52344 117.492 10.0078L 121.055 16.8867L 121.055 17.0625L 116.648 17.0625L 113.637 11.0391ZM 111.41 7.86328L 114.012 7.86328C 114.793 7.86328 115.379 7.66016 115.77 7.25391C 116.168 6.83984 116.367 6.26562 116.367 5.53125C 116.367 4.79688 116.168 4.22266 115.77 3.80859C 115.371 3.38672 114.785 3.17578 114.012 3.17578L 111.41 3.17578L 111.41 7.86328Z"/>
</defs>
</svg>
